<?xml version="1.0" standalone="no"?>
<!DOCTYPE svg PUBLIC "-//W3C//DTD SVG 20010904//EN"
 "http://www.w3.org/TR/2001/REC-SVG-20010904/DTD/svg10.dtd">
<svg version="1.0" xmlns="http://www.w3.org/2000/svg"
 width="886.000000pt" height="274.000000pt" viewBox="0 0 886.000000 274.000000"
 preserveAspectRatio="xMidYMid meet">

<g transform="translate(0.000000,274.000000) scale(0.100000,-0.100000)"
fill="#000000" stroke="none">
<path d="M7783 1620 c-48 -20 -38 -103 13 -116 43 -11 78 14 82 57 2 21 -3 40
-10 47 -20 16 -61 22 -85 12z"/>
<path d="M2920 1290 l0 -320 64 0 65 0 3 145 c3 140 4 145 29 170 29 30 82 41
122 26 45 -17 57 -62 57 -211 l0 -130 65 0 65 0 0 143 c-1 195 -13 238 -83
291 -42 31 -151 35 -205 7 -23 -12 -44 -21 -47 -21 -3 0 -5 50 -5 110 l0 110
-65 0 -65 0 0 -320z"/>
<path d="M6710 1500 c0 -60 -1 -110 -3 -110 -1 0 -20 9 -42 20 -51 26 -145 27
-201 1 -108 -49 -156 -199 -100 -316 42 -89 102 -125 208 -125 45 0 72 6 96
20 34 21 53 25 51 13 -5 -28 4 -33 61 -33 l60 0 0 320 0 320 -65 0 -65 0 0
-110z m-53 -196 c41 -26 56 -60 51 -114 -3 -29 -13 -59 -24 -71 -91 -103 -248
-7 -205 124 26 76 109 105 178 61z"/>
<path d="M7500 1290 l0 -320 65 0 65 0 0 320 0 320 -65 0 -65 0 0 -320z"/>
<path d="M1520 1270 l0 -300 65 0 65 0 2 172 3 173 75 -125 c83 -138 101 -160
130 -160 22 0 33 16 131 182 34 59 64 106 67 104 2 -2 4 -80 5 -173 l2 -168
63 -3 62 -3 0 301 0 301 -57 -3 -58 -3 -105 -177 c-57 -98 -109 -178 -115
-178 -5 0 -57 81 -115 180 l-105 179 -57 1 -58 0 0 -300z"/>
<path d="M2330 1258 c6 -197 15 -225 86 -266 53 -31 167 -28 213 6 38 28 41
28 41 -3 0 -24 3 -25 60 -25 l60 0 0 230 0 230 -64 0 -65 0 -3 -144 c-3 -137
-4 -146 -27 -170 -46 -49 -135 -43 -160 10 -6 15 -11 82 -11 164 l0 140 -67 0
-68 0 5 -172z"/>
<path d="M3570 1414 c-70 -25 -73 -30 -48 -77 11 -23 21 -43 23 -45 1 -1 16 5
33 14 18 8 56 18 84 20 62 6 112 -19 120 -59 l5 -25 -102 -4 c-118 -5 -159
-22 -188 -78 -34 -65 -7 -139 65 -176 15 -8 56 -14 91 -14 52 0 71 5 101 25
20 13 37 21 37 17 1 -4 2 -14 3 -22 1 -11 17 -16 65 -18 l63 -3 -4 163 c-5
190 -14 222 -79 265 -38 25 -53 28 -133 30 -64 2 -105 -2 -136 -13z m220 -269
c0 -37 -30 -74 -69 -85 -77 -20 -139 32 -96 80 15 16 31 20 92 20 59 0 73 -3
73 -15z"/>
<path d="M4040 1200 l0 -230 64 0 64 0 4 146 3 146 34 30 c29 26 39 30 75 25
70 -10 76 -26 76 -199 l0 -149 68 3 67 3 1 136 c0 112 3 142 18 163 32 50 99
60 143 22 l28 -24 3 -151 4 -151 65 0 65 0 -4 168 c-3 147 -6 172 -25 207 -52
99 -203 115 -314 33 -14 -9 -23 -7 -49 15 -40 34 -66 40 -139 35 -38 -3 -68
-11 -89 -27 l-32 -22 0 25 c0 25 -2 26 -65 26 l-65 0 0 -230z"/>
<path d="M4940 1200 l0 -230 65 0 65 0 0 125 c0 136 11 180 51 209 35 24 85
20 114 -9 24 -23 25 -28 25 -175 l0 -150 70 0 70 0 0 144 c0 136 1 147 23 171
33 39 94 45 133 12 l29 -25 3 -151 3 -151 66 0 65 0 -4 168 c-3 146 -6 172
-24 207 -51 99 -204 115 -315 33 -14 -9 -23 -7 -49 15 -40 34 -66 40 -139 35
-38 -3 -68 -11 -89 -27 l-32 -22 0 25 c0 25 -2 26 -65 26 l-65 0 0 -230z"/>
<path d="M5920 1421 c-14 -5 -40 -15 -57 -25 l-33 -16 22 -45 c16 -33 26 -44
38 -39 120 52 203 40 224 -32 6 -21 3 -22 -96 -26 -69 -3 -114 -10 -135 -22
-91 -47 -92 -164 -3 -224 31 -21 44 -23 112 -20 64 3 81 7 102 27 14 14 27 21
27 18 1 -4 3 -11 4 -17 1 -5 3 -14 4 -20 0 -5 28 -10 61 -10 l60 0 0 143 c-1
208 -15 251 -100 295 -36 18 -60 22 -125 21 -44 0 -91 -4 -105 -8z m200 -285
c0 -54 -69 -92 -137 -74 -41 11 -54 49 -28 78 15 16 31 20 92 20 70 0 73 -1
73 -24z"/>
<path d="M7022 1411 c-29 -10 -55 -21 -59 -25 -4 -3 3 -27 15 -51 22 -45 22
-45 50 -31 89 46 212 20 212 -45 0 -14 -14 -17 -97 -21 -147 -6 -203 -44 -203
-135 0 -85 63 -133 173 -133 52 0 71 5 101 25 l36 24 0 -24 c0 -24 3 -25 60
-25 l60 0 0 160 c0 199 -12 234 -93 275 -64 31 -173 34 -255 6z m216 -283 c-4
-42 -44 -71 -99 -71 -32 0 -47 6 -61 23 -23 28 -23 35 2 60 16 16 33 20 91 20
l70 0 -3 -32z"/>
<path d="M7760 1200 l0 -230 55 0 55 0 0 230 0 230 -55 0 -55 0 0 -230z"/>
<path d="M1016 1265 c-3 -8 -13 -15 -23 -15 -15 0 -16 2 -3 10 10 6 11 10 3
10 -25 0 -53 -39 -53 -74 0 -40 46 -88 62 -64 6 10 8 8 8 -4 0 -10 6 -18 14
-18 17 0 66 46 66 62 0 7 -13 -2 -28 -20 -15 -18 -30 -32 -34 -32 -5 0 2 10
14 22 14 14 18 23 10 26 -13 4 -17 23 -4 20 15 -3 42 15 42 29 0 16 -44 63
-58 63 -6 0 -12 -7 -16 -15z m52 -34 c2 -15 0 -21 -7 -16 -6 3 -8 11 -5 17 7
11 -11 8 -50 -8 -14 -5 -17 -4 -12 4 4 7 14 12 22 12 8 0 12 5 8 11 -4 7 2 9
17 7 16 -2 25 -11 27 -27z m-54 -47 c10 -25 -3 -35 -27 -22 -12 7 -25 11 -29
10 -5 -1 -8 5 -8 13 0 21 56 20 64 -1z"/>
<path d="M776 1234 c-34 -33 -7 -94 42 -94 22 0 52 34 52 61 0 41 -64 63 -94
33z"/>
<path d="M1175 1226 c-30 -45 13 -98 66 -81 55 18 38 105 -21 105 -20 0 -35
-8 -45 -24z"/>
<path d="M630 1226 c-28 -35 11 -93 48 -70 35 22 22 84 -18 84 -10 0 -23 -7
-30 -14z"/>
<path d="M1340 1226 c-28 -35 11 -93 48 -70 35 22 22 84 -18 84 -10 0 -23 -7
-30 -14z"/>
</g>
</svg>
